<?xml version="1.0" standalone="no"?>
<!DOCTYPE svg PUBLIC "-//W3C//DTD SVG 20010904//EN"
 "http://www.w3.org/TR/2001/REC-SVG-20010904/DTD/svg10.dtd">
<svg version="1.0" xmlns="http://www.w3.org/2000/svg"
 width="1024.000000pt" height="1024.000000pt" viewBox="0 0 1024.000000 1024.000000"
 preserveAspectRatio="xMidYMid meet">

<g transform="translate(0.000000,1024.000000) scale(0.100000,-0.100000)"
fill="#000000" stroke="none">
<path d="M5055 7502 c-37 -23 -823 -586 -1333 -955 -204 -148 -383 -282 -396
-298 -30 -36 -40 -102 -34 -245 4 -105 4 -106 36 -135 43 -39 78 -37 141 6 28
19 53 35 56 35 3 0 5 -257 5 -570 0 -630 -2 -612 63 -647 29 -16 71 -18 487
-18 453 0 455 0 491 22 64 40 63 34 69 508 6 465 6 460 64 560 61 104 206 195
346 216 242 37 486 -122 539 -352 6 -26 11 -211 11 -444 0 -440 0 -443 63
-489 28 -21 39 -21 490 -21 423 0 465 1 494 18 71 38 68 8 71 644 l3 572 54
-34 c67 -43 97 -44 136 -6 l29 29 0 154 c0 131 -3 157 -19 183 -20 33 -257
207 -1170 860 -636 455 -628 450 -696 407z m226 -544 c137 -99 615 -443 947
-681 l152 -110 0 -558 0 -559 -199 0 -199 0 -5 313 c-5 343 -8 365 -73 505
-82 179 -224 321 -409 408 -269 129 -617 105 -860 -57 -193 -129 -326 -328
-367 -545 -8 -45 -13 -164 -13 -346 l0 -278 -202 0 -203 0 0 559 0 558 63 44
c63 44 186 131 842 601 198 142 365 256 371 254 6 -2 76 -51 155 -108z"/>
<path d="M2570 4131 c-101 -33 -163 -108 -189 -229 -16 -77 -14 -324 4 -400
18 -76 34 -107 74 -148 53 -54 96 -69 191 -69 72 0 93 4 135 26 61 31 109 92
132 167 26 81 26 372 1 453 -42 136 -123 202 -253 206 -38 1 -81 -1 -95 -6z
m157 -160 c38 -38 54 -95 60 -216 6 -108 -9 -230 -32 -276 -36 -69 -128 -85
-176 -31 -43 48 -54 100 -54 267 0 167 14 227 62 265 40 31 104 27 140 -9z"/>
<path d="M5756 4125 c-139 -49 -195 -192 -182 -465 10 -227 57 -320 187 -365
93 -33 232 -7 305 57 l34 30 0 179 0 179 -135 0 -135 0 0 -65 0 -64 63 -3 c34
-2 61 -6 60 -10 -2 -5 -3 -42 -3 -83 0 -86 -10 -97 -85 -97 -56 0 -81 17 -108
72 -20 41 -22 59 -22 220 0 197 12 248 66 276 67 34 126 5 150 -75 7 -25 17
-40 24 -37 7 2 34 7 61 11 76 10 74 8 60 62 -18 69 -40 107 -82 141 -61 50
-175 67 -258 37z"/>
<path d="M8038 4126 c-79 -28 -124 -76 -160 -168 -17 -43 -22 -82 -26 -211 -6
-218 15 -313 87 -390 90 -98 282 -102 378 -9 76 74 103 170 103 361 -1 245
-61 372 -199 419 -45 16 -137 14 -183 -2z m161 -152 c50 -42 63 -107 59 -292
-4 -182 -17 -224 -78 -254 -68 -34 -136 6 -162 96 -17 56 -16 318 1 375 28 96
113 131 180 75z"/>
<path d="M1130 3710 l0 -420 80 0 80 0 0 95 c0 89 2 100 35 165 19 39 37 70
39 70 2 0 36 -74 76 -165 l72 -165 88 0 88 0 -95 208 c-52 114 -101 221 -108
238 -13 28 -12 35 7 70 11 21 54 101 94 176 41 76 74 140 74 143 0 3 -37 5
-83 5 l-82 0 -100 -195 -100 -195 -5 192 -5 193 -77 3 -78 3 0 -421z"/>
<path d="M1780 3711 l0 -421 75 0 75 0 0 150 0 150 38 0 38 0 62 -147 61 -148
85 -3 c47 -1 86 -1 86 2 0 3 -16 40 -36 83 -19 43 -49 112 -66 153 -17 41 -35
80 -40 87 -6 7 0 17 19 28 111 66 137 284 48 401 -50 66 -89 77 -277 82 l-168
4 0 -421z m311 250 c26 -26 29 -36 29 -91 0 -104 -34 -140 -136 -143 l-49 -2
-3 133 -3 132 66 0 c60 0 69 -3 96 -29z"/>
<path d="M2980 4121 c0 -9 170 -715 189 -788 l12 -43 99 0 98 0 37 153 c20 83
63 263 95 399 32 136 61 257 65 268 6 19 2 20 -74 20 -75 0 -81 -1 -86 -22
-15 -61 -107 -501 -117 -555 -6 -35 -14 -63 -17 -63 -3 0 -35 134 -70 298 -34
163 -65 307 -68 320 -5 20 -10 22 -84 22 -43 0 -79 -4 -79 -9z"/>
<path d="M3660 3710 l0 -420 71 0 70 0 -3 294 c-2 162 -2 293 0 291 2 -1 36
-94 76 -206 41 -112 89 -243 107 -291 l33 -88 88 0 88 0 0 420 0 420 -76 0
-75 0 3 -274 c2 -151 0 -269 -4 -262 -6 11 -132 349 -190 509 -10 27 -11 27
-99 27 l-89 0 0 -420z"/>
<path d="M4466 4113 c-3 -10 -46 -189 -96 -398 -50 -209 -93 -390 -96 -402 -6
-22 -4 -23 73 -23 l79 0 19 93 20 92 105 3 105 3 20 -93 20 -93 78 -3 c42 -2
77 1 77 5 0 4 -46 194 -102 421 l-102 412 -97 0 c-84 0 -98 -2 -103 -17z m114
-175 c0 -13 16 -93 35 -178 19 -85 35 -156 35 -157 0 -2 -37 -3 -81 -3 -73 0
-81 2 -77 18 3 9 20 90 38 180 31 147 50 200 50 140z"/>
<path d="M4950 3710 l0 -422 153 4 c171 4 227 20 285 81 76 80 96 162 90 371
-5 174 -23 237 -85 301 -64 66 -106 78 -285 83 l-158 4 0 -422z m309 255 c51
-44 66 -101 66 -255 0 -144 -11 -196 -49 -239 -29 -32 -77 -51 -131 -51 l-45
0 0 285 0 285 64 0 c54 0 69 -4 95 -25z"/>
<path d="M6200 3710 l0 -420 205 0 205 0 0 65 0 65 -125 0 -125 0 0 355 0 355
-80 0 -80 0 0 -420z"/>
<path d="M6865 4118 c-3 -7 -27 -107 -54 -223 -27 -115 -70 -294 -95 -397 -25
-102 -46 -191 -46 -197 0 -7 29 -11 78 -11 l78 0 13 73 c23 124 15 117 130
117 86 0 100 -2 105 -17 2 -10 12 -53 22 -95 l18 -78 78 0 c43 0 78 3 78 8 0
4 -46 193 -102 419 l-103 413 -98 0 c-69 0 -99 -4 -102 -12z m115 -191 c0 -21
53 -269 66 -309 5 -16 -2 -18 -76 -18 -75 0 -82 2 -77 19 2 10 19 91 37 179
18 89 37 159 42 156 4 -3 8 -15 8 -27z"/>
<path d="M7220 4121 c0 -10 145 -623 177 -751 l19 -75 102 -3 c56 -1 102 1
102 5 0 4 16 73 35 153 56 230 155 659 155 670 0 7 -28 10 -77 8 l-78 -3 -12
-60 c-31 -150 -113 -543 -119 -565 -7 -27 -32 79 -125 523 l-22 107 -79 0
c-43 0 -78 -4 -78 -9z"/>
<path d="M8540 3710 l0 -420 71 0 70 0 -3 290 c-2 159 0 286 3 282 3 -4 21
-50 38 -102 18 -52 46 -130 63 -172 l29 -78 38 0 38 0 59 170 59 170 3 -280 2
-280 75 0 75 0 0 420 0 420 -89 0 -89 0 -27 -72 c-15 -40 -42 -118 -61 -173
-19 -55 -37 -107 -40 -115 -3 -8 -36 68 -73 170 l-67 185 -87 3 -87 3 0 -421z"/>
</g>
</svg>
